<?xml version="1.0" standalone="no"?>
<!DOCTYPE svg PUBLIC "-//W3C//DTD SVG 20010904//EN"
 "http://www.w3.org/TR/2001/REC-SVG-20010904/DTD/svg10.dtd">
<svg version="1.0" xmlns="http://www.w3.org/2000/svg"
 width="326.000000pt" height="214.000000pt" viewBox="0 0 326.000000 214.000000"
 preserveAspectRatio="xMidYMid meet">

<g transform="translate(0.000000,214.000000) scale(0.100000,-0.100000)"
fill="#000000" stroke="none">
<path d="M1543 1052 l-33 -3 0 -95 0 -95 37 3 c41 3 56 25 21 30 -34 5 -39 55
-6 60 30 4 30 22 0 26 -31 5 -27 46 6 50 21 3 30 17 15 24 -5 2 -23 2 -40 0z"/>
<path d="M726 978 c-4 -40 -10 -83 -13 -95 -4 -16 -1 -23 10 -23 10 0 18 16
24 48 l10 47 13 -47 c15 -59 36 -62 45 -8 8 48 25 63 25 21 0 -38 9 -61 24
-61 12 0 11 16 -10 158 -5 30 -34 48 -34 20 0 -7 -5 -30 -11 -52 -12 -45 -25
-38 -37 19 -4 24 -14 41 -24 43 -12 2 -17 -11 -22 -70z"/>
<path d="M912 958 l3 -93 38 -3 c27 -2 37 1 37 12 0 8 -10 16 -22 18 -17 2
-24 11 -26 31 -3 23 0 27 22 27 16 0 26 6 26 15 0 9 -10 15 -26 15 -21 0 -25
4 -22 23 2 14 11 23 26 25 38 6 24 22 -18 22 l-41 0 3 -92z"/>
<path d="M1055 994 c14 -31 25 -74 25 -96 0 -60 24 -42 30 23 3 30 13 68 23
86 21 39 21 43 3 43 -7 0 -19 -13 -26 -30 -7 -16 -16 -30 -20 -30 -5 0 -13 14
-19 30 -5 17 -17 30 -25 30 -13 0 -11 -10 9 -56z"/>
<path d="M1210 1028 c-30 -33 -28 -111 5 -143 41 -41 86 -28 105 31 31 94 -49
177 -110 112z m72 -15 c20 -18 24 -73 8 -104 -6 -10 -21 -19 -34 -19 -43 0
-59 85 -24 127 14 17 28 16 50 -4z"/>
<path d="M1360 955 c0 -78 3 -95 15 -95 12 0 15 13 15 56 0 30 3 53 8 51 4 -3
16 -28 27 -56 31 -81 45 -67 45 44 0 78 -3 95 -15 95 -11 0 -15 -13 -16 -52
l-1 -53 -24 53 c-38 83 -54 71 -54 -43z"/>
<path d="M1622 958 l3 -93 35 3 c53 5 84 44 77 99 -6 58 -30 83 -79 83 l-39 0
3 -92z m72 50 c9 -12 16 -34 16 -48 0 -31 -26 -70 -46 -70 -11 0 -14 15 -14
63 0 82 14 99 44 55z"/>
<path d="M1780 965 c0 -73 3 -86 19 -95 27 -14 47 -13 65 6 21 20 23 174 4
174 -9 0 -13 -21 -13 -70 0 -80 -16 -109 -42 -75 -11 15 -13 35 -9 83 6 52 4
62 -9 62 -12 0 -15 -15 -15 -85z"/>
<path d="M1944 1029 c-14 -15 -19 -36 -19 -75 0 -61 14 -80 63 -90 25 -5 32
-3 32 10 0 10 -9 16 -25 16 -31 0 -47 29 -43 78 2 31 9 40 35 52 40 19 42 30
5 30 -17 0 -37 -9 -48 -21z"/>
<path d="M2097 1043 c-3 -5 -13 -45 -22 -91 -18 -83 -14 -112 9 -79 16 21 45
22 52 2 4 -8 12 -15 18 -15 9 0 7 25 -8 95 -12 60 -24 95 -32 95 -7 0 -15 -3
-17 -7z m25 -98 c4 -17 1 -25 -8 -25 -14 0 -19 31 -7 43 9 10 10 9 15 -18z"/>
<path d="M2200 1040 c0 -5 9 -10 20 -10 18 0 20 -7 20 -85 0 -50 4 -85 10 -85
6 0 10 34 10 81 0 72 2 81 20 86 37 10 20 23 -30 23 -27 0 -50 -4 -50 -10z"/>
<path d="M2340 956 c0 -80 3 -96 15 -96 13 0 15 15 13 92 -2 62 -7 93 -15 96
-10 3 -13 -20 -13 -92z"/>
<path d="M2434 1035 c-27 -18 -37 -67 -24 -116 17 -61 63 -77 105 -34 35 34
35 112 2 143 -27 26 -54 28 -83 7z m75 -37 c22 -39 5 -102 -28 -106 -32 -5
-51 21 -51 69 0 67 50 90 79 37z"/>
<path d="M2580 955 c0 -78 3 -95 15 -95 12 0 15 13 16 58 l0 57 26 -57 c39
-88 53 -77 53 37 0 78 -3 95 -15 95 -11 0 -15 -13 -16 -57 l-1 -58 -25 58
c-39 86 -53 76 -53 -38z"/>
</g>
</svg>
